TITLE ""
FILE "P1Q_t_0960-0968.mp3" MP3
  TRACK 01 AUDIO
    TITLE "P1Q_t_0960-0968_01"
    INDEX 01 00:00:00
  TRACK 02 AUDIO
    TITLE "P1Q_t_0960-0968_02"
    INDEX 01 00:00:10
  TRACK 03 AUDIO
    TITLE "P1Q_t_0960-0968_03"
    INDEX 01 00:01:25
  TRACK 04 AUDIO
    TITLE "P1Q_t_0960-0968_04"
    INDEX 01 00:01:45
  TRACK 05 AUDIO
    TITLE "P1Q_t_0960-0968_05"
    INDEX 01 00:04:49
  TRACK 06 AUDIO
    TITLE "P1Q_t_0960-0968_06"
    INDEX 01 00:04:69
  TRACK 07 AUDIO
    TITLE "P1Q_t_0960-0968_07"
    INDEX 01 00:09:07
  TRACK 08 AUDIO
    TITLE "P1Q_t_0960-0968_08"
    INDEX 01 00:09:54
  TRACK 09 AUDIO
    TITLE "P1Q_t_0960-0968_09"
    INDEX 01 00:10:64
  TRACK 10 AUDIO
    TITLE "P1Q_t_0960-0968_10"
    INDEX 01 00:11:12
  TRACK 11 AUDIO
    TITLE "P1Q_t_0960-0968_11"
    INDEX 01 00:13:36
  TRACK 12 AUDIO
    TITLE "P1Q_t_0960-0968_12"
    INDEX 01 00:13:56
  TRACK 13 AUDIO
    TITLE "P1Q_t_0960-0968_13"
    INDEX 01 00:17:60
  TRACK 14 AUDIO
    TITLE "P1Q_t_0960-0968_14"
    INDEX 01 00:18:30
  TRACK 15 AUDIO
    TITLE "P1Q_t_0960-0968_15"
    INDEX 01 00:19:59
  TRACK 16 AUDIO
    TITLE "P1Q_t_0960-0968_16"
    INDEX 01 00:20:05
  TRACK 17 AUDIO
    TITLE "P1Q_t_0960-0968_17"
    INDEX 01 00:22:26
  TRACK 18 AUDIO
    TITLE "P1Q_t_0960-0968_18"
    INDEX 01 00:22:45
  TRACK 19 AUDIO
    TITLE "P1Q_t_0960-0968_19"
    INDEX 01 00:28:52
  TRACK 20 AUDIO
    TITLE "P1Q_t_0960-0968_20"
    INDEX 01 00:29:22
  TRACK 21 AUDIO
    TITLE "P1Q_t_0960-0968_21"
    INDEX 01 00:30:45
  TRACK 22 AUDIO
    TITLE "P1Q_t_0960-0968_22"
    INDEX 01 00:30:68
  TRACK 23 AUDIO
    TITLE "P1Q_t_0960-0968_23"
    INDEX 01 00:33:69
  TRACK 24 AUDIO
    TITLE "P1Q_t_0960-0968_24"
    INDEX 01 00:34:13
  TRACK 25 AUDIO
    TITLE "P1Q_t_0960-0968_25"
    INDEX 01 00:39:06
  TRACK 26 AUDIO
    TITLE "P1Q_t_0960-0968_26"
    INDEX 01 00:39:55
  TRACK 27 AUDIO
    TITLE "P1Q_t_0960-0968_27"
    INDEX 01 00:40:73
  TRACK 28 AUDIO
    TITLE "P1Q_t_0960-0968_28"
    INDEX 01 00:41:17
  TRACK 29 AUDIO
    TITLE "P1Q_t_0960-0968_29"
    INDEX 01 00:45:29
  TRACK 30 AUDIO
    TITLE "P1Q_t_0960-0968_30"
    INDEX 01 00:45:48
  TRACK 31 AUDIO
    TITLE "P1Q_t_0960-0968_31"
    INDEX 01 00:49:46
  TRACK 32 AUDIO
    TITLE "P1Q_t_0960-0968_32"
    INDEX 01 00:50:18
  TRACK 33 AUDIO
    TITLE "P1Q_t_0960-0968_33"
    INDEX 01 00:51:31
  TRACK 34 AUDIO
    TITLE "P1Q_t_0960-0968_34"
    INDEX 01 00:51:53
  TRACK 35 AUDIO
    TITLE "P1Q_t_0960-0968_35"
    INDEX 01 00:52:70
  TRACK 36 AUDIO
    TITLE "P1Q_t_0960-0968_36"
    INDEX 01 00:53:12
  TRACK 37 AUDIO
    TITLE "P1Q_t_0960-0968_37"
    INDEX 01 00:57:73
  TRACK 38 AUDIO
    TITLE "P1Q_t_0960-0968_38"
    INDEX 01 00:58:47
  TRACK 39 AUDIO
    TITLE "P1Q_t_0960-0968_39"
    INDEX 01 00:59:72
  TRACK 40 AUDIO
    TITLE "P1Q_t_0960-0968_40"
    INDEX 01 01:00:40
  TRACK 41 AUDIO
    TITLE "P1Q_t_0960-0968_41"
    INDEX 01 01:01:67
  TRACK 42 AUDIO
    TITLE "P1Q_t_0960-0968_42"
    INDEX 01 01:02:17
  TRACK 43 AUDIO
    TITLE "P1Q_t_0960-0968_43"
    INDEX 01 01:03:48
  TRACK 44 AUDIO
    TITLE "P1Q_t_0960-0968_44"
    INDEX 01 01:03:68
  TRACK 45 AUDIO
    TITLE "P1Q_t_0960-0968_45"
    INDEX 01 01:08:45
  TRACK 46 AUDIO
    TITLE "P1Q_t_0960-0968_46"
    INDEX 01 01:09:17
  TRACK 47 AUDIO
    TITLE "P1Q_t_0960-0968_47"
    INDEX 01 01:10:46
  TRACK 48 AUDIO
    TITLE "P1Q_t_0960-0968_48"
    INDEX 01 01:10:66
  TRACK 49 AUDIO
    TITLE "P1Q_t_0960-0968_49"
    INDEX 01 01:13:58
  TRACK 50 AUDIO
    TITLE "P1Q_t_0960-0968_50"
    INDEX 01 01:14:03
  TRACK 51 AUDIO
    TITLE "P1Q_t_0960-0968_51"
    INDEX 01 01:19:41
  TRACK 52 AUDIO
    TITLE "P1Q_t_0960-0968_52"
    INDEX 01 01:20:11
  TRACK 53 AUDIO
    TITLE "P1Q_t_0960-0968_53"
    INDEX 01 01:21:38
  TRACK 54 AUDIO
    TITLE "P1Q_t_0960-0968_54"
    INDEX 01 01:21:60
  TRACK 55 AUDIO
    TITLE "P1Q_t_0960-0968_55"
    INDEX 01 01:23:16
  TRACK 56 AUDIO
    TITLE "P1Q_t_0960-0968_56"
    INDEX 01 01:23:33
  TRACK 57 AUDIO
    TITLE "P1Q_t_0960-0968_57"
    INDEX 01 01:28:36
